<?xml version="1.0" standalone="no"?>
<!DOCTYPE svg PUBLIC "-//W3C//DTD SVG 20010904//EN"
 "http://www.w3.org/TR/2001/REC-SVG-20010904/DTD/svg10.dtd">
<svg version="1.0" xmlns="http://www.w3.org/2000/svg"
 width="963.000000pt" height="171.000000pt" viewBox="0 0 963.000000 171.000000"
 preserveAspectRatio="xMidYMid meet">

<g transform="translate(0.000000,171.000000) scale(0.100000,-0.100000)"
fill="#000000" stroke="none">
<path d="M4602 1418 c-7 -7 -12 -21 -12 -33 0 -40 18 -45 152 -45 l128 0 2
-552 3 -553 40 0 40 0 3 553 2 552 124 0 c69 0 131 3 140 6 10 4 16 18 16 39
0 21 -6 35 -16 39 -9 3 -149 6 -313 6 -218 0 -300 -3 -309 -12z"/>
<path d="M7191 1416 c-8 -9 -10 -174 -9 -597 l3 -584 27 -3 c18 -2 31 4 41 19
20 27 49 27 111 -1 144 -65 292 -15 326 111 7 26 10 135 8 307 l-3 267 -27 45
c-37 64 -87 90 -174 90 -50 0 -86 -7 -129 -25 -101 -42 -95 -53 -95 164 0 159
-3 192 -16 205 -19 20 -48 21 -63 2z m367 -453 c45 -33 51 -69 51 -316 1 -242
-4 -272 -49 -312 -17 -16 -40 -21 -106 -24 -94 -3 -134 8 -164 47 -19 23 -20
41 -20 284 0 291 3 304 69 333 52 22 182 15 219 -12z"/>
<path d="M9336 1414 c-20 -19 -22 -112 -3 -138 9 -12 23 -17 42 -14 30 3 30 4
33 71 3 72 -7 97 -39 97 -9 0 -25 -7 -33 -16z"/>
<path d="M336 1407 c-13 -10 -50 -153 -147 -577 -121 -529 -128 -564 -112
-582 10 -11 30 -18 55 -18 47 0 48 1 88 180 16 74 32 145 35 158 5 22 6 22
162 20 l156 -3 38 -168 c21 -93 41 -173 44 -178 10 -15 82 -10 99 7 9 8 16 18
16 22 0 4 -57 257 -127 562 -90 392 -132 559 -145 572 -22 22 -134 25 -162 5z
m103 -213 c11 -60 38 -189 60 -288 23 -98 41 -185 41 -192 0 -11 -26 -14 -125
-14 -69 0 -125 4 -125 9 0 5 20 96 44 202 39 170 76 363 76 392 0 34 13 -15
29 -109z"/>
<path d="M1030 1410 c-12 -7 -16 -41 -18 -180 l-3 -170 -63 0 c-71 0 -86 -10
-86 -57 0 -41 21 -53 94 -53 l56 0 0 -338 c0 -378 1 -382 65 -382 66 0 65 -6
65 376 l0 344 104 0 c113 0 136 9 136 54 0 47 -18 55 -130 58 l-105 3 -5 165
c-3 91 -9 171 -13 178 -10 14 -75 16 -97 2z"/>
<path d="M2262 1408 c-17 -17 -17 -1149 0 -1166 15 -15 63 -16 89 -2 18 10 19
27 19 583 0 432 -3 576 -12 585 -7 7 -28 12 -48 12 -20 0 -41 -5 -48 -12z"/>
<path d="M2682 1408 c-7 -7 -12 -43 -12 -90 0 -84 9 -98 64 -98 43 0 56 24 56
104 0 82 -8 96 -60 96 -20 0 -41 -5 -48 -12z"/>
<path d="M5292 1061 c-8 -5 -12 -21 -10 -37 l3 -29 142 -5 c123 -4 145 -8 170
-26 44 -33 53 -60 53 -167 0 -118 -4 -121 -93 -81 -48 22 -78 28 -132 28 -81
1 -120 -17 -169 -77 l-31 -39 0 -142 c0 -134 1 -145 24 -178 37 -53 82 -79
148 -85 61 -6 94 1 181 36 l53 21 25 -26 c18 -17 35 -24 53 -22 l26 3 3 335
c3 350 0 385 -40 435 -41 53 -87 65 -248 65 -80 0 -151 -4 -158 -9z m320 -439
c32 -31 33 -36 36 -121 6 -153 -27 -191 -168 -191 -143 0 -174 34 -168 185 3
83 6 96 28 120 37 40 56 45 152 42 84 -2 89 -3 120 -35z"/>
<path d="M5955 1057 c-3 -6 -4 -194 -3 -417 l3 -405 34 -3 c20 -2 37 2 42 10
5 7 9 158 9 336 0 347 3 366 53 394 13 7 78 15 162 18 137 5 140 6 143 28 6
42 -13 52 -102 52 -57 -1 -98 -7 -136 -21 -91 -34 -114 -35 -133 -5 -19 28
-64 36 -72 13z"/>
<path d="M6522 1061 c-8 -5 -12 -21 -10 -37 l3 -29 142 -5 c123 -4 145 -8 170
-26 44 -33 53 -60 53 -167 0 -117 -5 -121 -88 -84 -112 50 -210 45 -279 -16
-53 -47 -63 -79 -63 -214 0 -137 16 -184 80 -228 68 -47 153 -46 278 4 l53 21
25 -26 c18 -17 35 -24 53 -22 l26 3 3 335 c3 350 0 385 -40 435 -41 53 -87 65
-248 65 -80 0 -151 -4 -158 -9z m320 -439 c32 -31 33 -36 36 -121 6 -152 -28
-191 -168 -191 -143 0 -174 34 -168 185 3 83 6 96 28 120 37 40 56 45 152 42
84 -2 89 -3 120 -35z"/>
<path d="M7912 1058 c-9 -9 -12 -99 -12 -345 0 -358 2 -377 53 -432 67 -73
177 -79 319 -17 36 15 38 15 67 -10 18 -15 40 -24 53 -22 l23 3 3 412 2 413
-26 6 c-59 15 -59 18 -64 -347 -4 -245 -8 -340 -18 -356 -23 -42 -66 -55 -163
-51 -85 3 -90 4 -121 36 l-33 32 -3 337 c-2 251 -6 339 -15 345 -18 12 -51 10
-65 -4z"/>
<path d="M8726 1060 c-34 -11 -82 -54 -102 -92 -19 -37 -19 -229 0 -266 38
-72 102 -102 221 -102 59 0 96 -5 116 -16 79 -40 79 -218 0 -258 -23 -13 -64
-16 -188 -16 -87 0 -164 -4 -171 -9 -8 -5 -12 -21 -10 -37 l3 -29 190 -3 c212
-3 227 0 279 59 41 45 49 80 45 192 -4 74 -7 88 -33 121 -47 62 -79 76 -176
76 -162 0 -200 29 -200 152 0 134 24 152 212 156 123 4 138 6 143 23 3 10 1
27 -5 39 -10 19 -20 20 -153 19 -78 0 -155 -5 -171 -9z"/>
<path d="M9331 1051 c-7 -13 -11 -152 -11 -409 0 -425 -1 -417 57 -410 l28 3
0 415 0 415 -32 3 c-23 2 -34 -2 -42 -17z"/>
<path d="M1585 1044 c-47 -24 -83 -64 -100 -108 -13 -35 -15 -84 -13 -301 3
-296 7 -314 87 -370 42 -30 43 -30 200 -33 174 -4 191 1 191 57 0 45 -15 51
-130 51 -193 0 -220 20 -220 166 l0 94 184 0 c181 0 185 1 213 24 27 24 28 28
31 138 4 129 -7 183 -45 228 -49 59 -87 70 -235 70 -101 0 -140 -4 -163 -16z
m265 -109 c43 -22 50 -43 50 -144 l0 -91 -150 0 -150 0 0 93 c0 136 18 155
148 156 47 1 84 -4 102 -14z"/>
<path d="M2677 1053 c-4 -3 -7 -185 -7 -403 0 -295 3 -399 12 -408 15 -15 63
-16 89 -2 18 10 19 25 19 403 0 292 -3 396 -12 405 -13 13 -90 17 -101 5z"/>
<path d="M3142 1039 c-26 -13 -55 -39 -70 -62 l-27 -40 -3 -266 c-4 -286 0
-319 45 -372 49 -57 90 -69 255 -69 l148 0 16 26 c13 19 15 32 8 52 -9 27 -9
27 -139 32 -133 6 -155 12 -190 50 -17 18 -20 36 -20 113 l0 92 193 5 c249 6
235 -6 230 200 -3 143 -4 148 -31 183 -49 65 -87 77 -239 77 -116 0 -139 -3
-176 -21z m294 -123 c34 -34 34 -35 34 -125 l0 -92 -152 3 -153 3 -3 65 c-4
80 11 133 45 159 21 18 40 21 110 21 83 0 86 -1 119 -34z"/>
<path d="M3777 1053 c-4 -3 -7 -185 -7 -403 0 -295 3 -399 12 -408 17 -17 74
-15 92 4 14 13 16 56 16 315 0 249 3 305 15 329 26 49 60 60 193 60 78 0 122
4 130 12 18 18 15 85 -4 92 -9 3 -51 6 -95 6 -81 0 -115 -11 -168 -51 -38 -30
-69 -25 -88 16 -15 31 -21 35 -53 35 -20 0 -40 -3 -43 -7z"/>
</g>
</svg>
